<svg xmlns="http://www.w3.org/2000/svg" xmlns:xlink="http://www.w3.org/1999/xlink" viewBox="0,0,256,256" width="64px" height="64px" fill-rule="nonzero"><g fill="#ffffff" fill-rule="nonzero" stroke="none" stroke-width="1" stroke-linecap="butt" stroke-linejoin="miter" stroke-miterlimit="10" stroke-dasharray="" stroke-dashoffset="0" font-family="none" font-weight="none" font-size="none" text-anchor="none" style="mix-blend-mode: normal"><g transform="scale(8,8)"><path d="M24.39844,14.80078l-0.19922,-0.30078c0,-2.39844 -1.09766,-3.30078 -2.30078,-4c0.40234,-0.10156 0.80078,-0.19922 0.90234,-0.69922c0.69922,-0.19922 0.80078,-0.5 0.89844,-0.80078c0.19922,-0.10156 0.69922,-0.39844 0.69922,-1c0.30078,-0.19922 0.5,-0.5 0.40234,-0.89844c0.30078,-0.40234 0.39844,-0.70312 0.30078,-1c0.39844,-0.5 0.19922,-0.80078 0.09766,-1.10156c0.30078,-0.60156 0,-1.19922 -0.80078,-1.10156c-0.29687,-0.5 -1.09766,-0.39844 -1.19922,-0.39844c-0.09766,-0.19922 -0.30078,-0.30078 -0.80078,-0.19922c-0.5,-0.30078 -0.89844,-0.30078 -1.29687,-0.10156c-0.5,-0.39844 -0.80078,-0.09766 -1.10156,0c-0.60156,-0.19922 -0.69922,0.10156 -1,0.19922c-0.60156,-0.09766 -0.80078,0.20313 -1.10156,0.5h-0.29687c-0.90234,0.5 -1.40234,1.70312 -1.60156,2.20312c-0.19922,-0.60156 -0.60156,-1.70312 -1.60156,-2.20312h-0.29687c-0.30078,-0.29687 -0.5,-0.59766 -1.10156,-0.5c-0.30078,-0.09766 -0.39844,-0.39844 -1,-0.19922c-0.19922,-0.09766 -0.39844,-0.19922 -0.69922,-0.19922c-0.10156,0 -0.19922,0.10156 -0.40234,0.19922c-0.39844,-0.19922 -0.79687,-0.19922 -1.09766,0.10156c-0.5,-0.10156 -0.69922,0.09766 -0.80078,0.19922c-0.10156,0 -0.89844,-0.10156 -1.19922,0.39844c-0.90234,-0.09766 -1.19922,0.5 -0.90234,1.10156c-0.19922,0.30078 -0.29687,0.5 0.10156,1.10156c-0.19922,0.19922 -0.10156,0.59766 0.30078,0.89844c-0.10156,0.39844 0,0.69922 0.39844,1c-0.09766,0.5 0.5,0.80078 0.60156,1c0.09766,0.30078 0.19922,0.60156 0.89844,0.80078c0.10156,0.5 0.5,0.59766 0.90234,0.69922c-1.30078,0.69922 -2.30078,1.69922 -2.30078,4l-0.19922,0.30078c-1.40234,0.89844 -2.70312,3.69922 -0.70312,6c0.10156,0.69922 0.30078,1.19922 0.5,1.80078c0.30078,2.29688 2.20313,3.39844 2.70313,3.5c0.69922,0.59766 1.5,1.09766 2.59766,1.5c1,1 2.10156,1.39844 3.19922,1.39844c1.10156,0 2.20312,-0.39844 3.20312,-1.39844c1.09766,-0.40234 1.89844,-0.90234 2.59766,-1.5c0.5,-0.10156 2.40234,-1.20312 2.69922,-3.5c0.20313,-0.60156 0.40234,-1.10156 0.60156,-1.80078c2.19922,-2.30078 0.89844,-5.10156 -0.60156,-6zM23.10156,14.39844c-0.10156,1 -4.90234,-3.29687 -4.10156,-3.39844c2.30078,-0.39844 4.19922,0.89844 4.10156,3.39844zM17.80078,4.5c0,0.19922 0.09766,0.30078 0.09766,0.39844c0.30078,-0.29687 0.5,-0.59766 0.80078,-0.89844c0,0.19922 -0.09766,0.30078 0.10156,0.5c0.19922,-0.30078 0.39844,-0.5 0.80078,-0.69922c-0.20312,0.30078 0,0.39844 0.09766,0.5c0.30078,-0.19922 0.5,-0.40234 1,-0.60156c-0.09766,0.19922 -0.30078,0.30078 -0.09766,0.5c0.29688,-0.19922 0.5,-0.30078 1.19922,-0.5c-0.10156,0.19922 -0.40234,0.30078 -0.30078,0.5c0.30078,-0.09766 0.69922,-0.19922 1.10156,-0.30078c-0.20312,0.20312 -0.40234,0.30078 -0.20312,0.40234c0.40234,-0.10156 0.80078,-0.30078 1.30078,-0.10156l-0.30078,0.30078c0,0 0.70313,0 1.20313,0c-0.20312,0.30078 -0.40234,0.5 -0.5,0.89844c0,0 0.29688,0 0.5,0c-0.20312,0.60156 -0.60156,0.70313 -0.70312,0.90234c0.10156,0.09766 0.30078,0.09766 0.60156,0c-0.19922,0.39844 -0.5,0.59766 -0.80078,0.89844c0.10156,0.10156 0.19922,0.10156 0.5,0c-0.30078,0.30078 -0.59766,0.5 -0.89844,0.80078c0.09766,0.10156 0.30078,0.10156 0.5,0.10156c-0.30078,0.29688 -0.80078,0.5 -1.19922,0.69922c0.09766,0.19922 0.29688,0.09766 0.39844,0.09766c-0.30078,0.20313 -0.80078,0.40234 -1.19922,0.5c0.09766,0.10156 0.19922,0.20313 0.39844,0.20313c-0.5,0.29688 -1.19922,0.09766 -1.39844,0.29688c0,0.10156 0.19922,0.20313 0.30078,0.30078c-0.80078,0 -2.90234,0 -3.30078,-1.59766c0.80078,-0.90234 2.19922,-1.90234 4.69922,-3.20313c-1.89844,0.70313 -3.69922,1.5 -5.10156,2.70313c-1.59766,-0.80078 -0.5,-2.80078 0.40234,-3.60156zM16,10.30078c1.19922,0 2.69922,0.89844 2.69922,1.80078c0,0.79688 -1.09766,1.39844 -2.69922,1.39844c-1.60156,0 -2.69922,-0.80078 -2.69922,-1.5c0,-0.69922 1.30078,-1.69922 2.69922,-1.69922zM9.89844,9.69922c0.20313,0 0.30078,-0.09766 0.40234,-0.19922c-0.5,-0.19922 -1,-0.30078 -1.30078,-0.60156c0.19922,0 0.30078,0 0.5,-0.09766c-0.39844,-0.19922 -0.80078,-0.40234 -1.19922,-0.69922c0.19922,0 0.39844,0 0.5,-0.10156c-0.30078,-0.19922 -0.60156,-0.5 -0.90234,-0.69922c0.30078,0 0.40234,0 0.5,0c-0.29687,-0.40234 -0.59766,-0.60156 -0.79688,-1c0.19922,0.09766 0.39844,0.09766 0.59766,0c-0.09766,-0.19922 -0.59766,-0.30078 -0.80078,-0.80078c0.20313,0 0.5,0 0.5,0c-0.09766,-0.39844 -0.29687,-0.69922 -0.39844,-0.89844c0.5,0 1.19922,0 1.19922,0l-0.30078,-0.40234c0.5,-0.09766 1,0 1.30078,0.10156c0.19922,-0.10156 0,-0.30078 -0.19922,-0.40234c0.39844,0.10156 0.80078,0.20312 1.10156,0.30078c0.19922,-0.19922 -0.10156,-0.30078 -0.30078,-0.5c0.69922,0.10156 0.89844,0.30078 1.19922,0.5c0.19922,-0.19922 0,-0.30078 -0.10156,-0.5c0.5,0.19922 0.70313,0.40234 1,0.60156c0.10156,-0.10156 0.20313,-0.19922 0.10156,-0.5c0.19922,0.19922 0.5,0.39844 0.69922,0.69922c0.19922,-0.10156 0.10156,-0.30078 0.10156,-0.5c0.30078,0.30078 0.59766,0.60156 0.80078,0.89844c0.09766,0 0.09766,-0.19922 0.09766,-0.39844c0.80078,0.80078 2,2.80078 0.30078,3.60156c-1.39844,-1.20313 -3.19922,-2.10156 -5.10156,-2.70313c2.5,1.30078 3.90234,2.30078 4.70313,3.20313c-0.40234,1.59766 -2.5,1.69922 -3.30078,1.59766c0.19922,-0.09766 0.30078,-0.19922 0.30078,-0.30078c-0.10156,-0.09766 -0.70312,0 -1.20312,-0.19922zM12.69922,10.89844c0.80078,0.10156 -4,4.40234 -4.09766,3.40234c-0.10156,-2.40234 1.79688,-3.80078 4.09766,-3.40234zM7.60156,20.39844c-1.20312,-1 -1.60156,-3.69922 0.59766,-5c1.30078,-0.39844 0.5,5.40234 -0.59766,5zM12.19922,25.39844c-0.69922,0.40234 -2.30078,0.20313 -3.39844,-1.39844c-0.80078,-1.39844 -0.69922,-2.80078 -0.10156,-3.19922c0.80078,-0.5 2.10156,0.19922 3,1.30078c0.80078,0.89844 1.19922,2.69922 0.5,3.29688zM10.89844,19.30078c-1.19922,-0.80078 -1.39844,-2.60156 -0.5,-4.10156c1,-1.39844 2.70313,-2 3.90234,-1.19922c1.19922,0.80078 1.39844,2.60156 0.5,4.10156c-0.90234,1.5 -2.69922,2 -3.90234,1.19922zM16,28.19922c-1.5,0.10156 -2.89844,-1.19922 -2.89844,-1.59766c0,-0.60156 1.79688,-1.10156 3,-1.10156c1.19922,-0.10156 2.79688,0.39844 2.79688,1c0,0.39844 -1.5,1.69922 -2.89844,1.69922zM19,21.80078c0,1.5 -1.30078,2.69922 -2.89844,2.69922c-1.60156,0 -3,-1.19922 -3,-2.69922c0,-1.5 1.29688,-2.69922 2.89844,-2.69922c1.69922,0 3,1.19922 3,2.69922zM17.19922,18c-1,-1.39844 -0.69922,-3.30078 0.5,-4.10156c1.19922,-0.79687 3,-0.29687 3.90234,1.20313c0.89844,1.5 0.69922,3.29687 -0.5,4.09766c-1.20312,0.69922 -3,0.19922 -3.90234,-1.19922zM23.19922,24c-1.30078,1.80078 -3,1.80078 -3.59766,1.30078c-0.70312,-0.60156 -0.20312,-2.60156 0.79688,-3.69922c1,-1.20312 2.20313,-2 2.90234,-1.40234c0.5,0.69922 0.80078,2.60156 -0.10156,3.80078zM24.10156,20.30078c-1.10156,0.5 -2,-5.30078 -0.60156,-5c2.19922,1.19922 1.80078,4 0.60156,5z"></path></g></g></svg>